# xmcd CD database file
#
# Track frame offsets:
#	225
#	14951
#	28703
#	41322
#	56464
#	66768
#	75566
#	86489
#	96778
#	109409
#	123796
#	135284
#	152308
#	170566
#	185009
#	197057
#
# Disc length: 2787 seconds
#
# Revision: 2
# Processed by: cddbd v1.5.1PL2 Copyright (c) Steve Scherf et al.
# Submitted via: CDex 1.51
#
DISCID=cb0ae010
DTITLE=Various Artist - Country Man CD 1
DYEAR=1998
DGENRE=Country
TTITLE0=Don Gibson - I Can´t Stop Loving You
TTITLE1=Kenny Rogers - Ruby Don´t Take Your Love To Town
TTITLE2=Willie Nelson - The Shelter Of Your Arms
TTITLE3=T.Texas Tyler - Deck Of Cards
TTITLE4=Carl Perkins - Daddy Sang Bass
TTITLE5=Waylon Jennings - Love's Gonna Live Here
TTITLE6=Stonewall Jackson - Things To Think About
TTITLE7=Don Gibson - Sea Of Heartbreak
TTITLE8=John Davis Band - Blue Blue Day
TTITLE9=Freddy Fender - Wasted Days And Wasted Nights
TTITLE10=George Jones - Talk Back Trembling Lips
TTITLE11=Johnny Cash - Sunday Morning Coming Down
TTITLE12=Tom T.Hall - I Like Beer
TTITLE13=Jerry Lee Lewis - What´s Make Milwaukee Famous
TTITLE14=Kenny Rogers - Me And Bobby Mc Gee
TTITLE15=Johnny Dollar - Big, Big Rollin´ Man
EXTD=YEAR: 1998
EXTT0=
EXTT1=
EXTT2=
EXTT3=
EXTT4=
EXTT5=
EXTT6=
EXTT7=
EXTT8=
EXTT9=
EXTT10=
EXTT11=
EXTT12=
EXTT13=
EXTT14=
EXTT15=
PLAYORDER=
